<svg
  xmlns="http://www.w3.org/2000/svg"
  width="800"
  height="600"
  viewBox="0 0 8000 6000"
>
  <path
    fill="currentColor"
    d="M2625 5874c-29-3-58-11-64-17-31-39-429-1224-535-1592-99-348-112-406-97-415 7-4 53-11 104-14 103-7 232-24 482-61 269-41 411-35 553 23 96 39 156 80 222 148 90 96 118 140 190 309 40 93 78 259 88 389 14 181-33 376-116 476-74 91-221 178-352 210-31 7-61 18-67 24-9 8 6 67 63 244 43 134 72 237 67 242-20 20-427 45-538 34m164-1227c-23-73-53-169-67-214-14-44-23-88-19-97 7-20 97-23 143-6 123 46 202 278 131 386-20 29-91 64-132 64-11 0-28-40-56-133M1637 5826c-187-27-409-84-661-168-206-68-209-69-224-100-14-31-93-226-103-258-5-14-24-68-44-119-39-104-42-121-21-121 8 0 85 22 172 50 178 56 419 110 495 110 67 0 89-13 89-52 0-48-53-90-291-232-315-187-439-275-555-391-99-98-107-110-175-256-4-9-11-46-15-82-8-77 12-151 55-205 54-69 173-129 331-168 90-22 379-30 532-15 228 22 307 33 316 44 6 6 28 84 50 172 23 88 54 205 69 261s24 105 21 108-50 1-105-5c-141-16-253-1-253 35 0 30 51 71 235 186 240 149 328 214 425 316 143 150 217 281 255 448 33 150 0 285-88 360-98 84-287 115-510 82m2352-184c0-4-31-129-69-277-99-386-200-749-457-1629-30-104-51-193-47-197 11-9 475-192 478-188 4 4 38 120 66 224 12 44 25 93 30 110 4 16 17 63 28 105 11 41 28 102 37 135 41 150 156 604 167 655 3 13 17 76 32 140 16 63 31 130 36 150 15 70 62 296 72 345 5 27 13 70 18 95 20 95 22 155 8 167-21 17-366 173-383 173-9 0-16-4-16-8m536-265c-7-20-24-118-31-177-3-31-14-91-24-135s-24-114-30-155c-7-42-21-111-31-155s-26-116-35-160c-8-44-29-134-45-200s-35-150-43-185c-15-71-105-417-161-625-86-318-85-309-48-322 10-4 169-78 353-164 374-175 406-188 418-174 8 9 44 158 62 250 4 22 17 86 29 144 11 57 17 107 13 111s-81 45-170 91-164 88-166 94c-5 12 36 200 45 210 4 3 79-31 167-77s163-81 166-77c6 6 20 76 35 184 22 145 41 290 41 306 0 12-46 45-150 106-83 48-152 92-154 98-2 5 0 32 4 60 15 98 49 341 59 420 6 44 15 115 20 157 6 43 11 102 11 132v53l-123 80c-122 79-193 123-202 123-3 0-7-6-10-13m694-700c-10-232-19-367-39-542-5-44-12-110-15-145-7-77-29-233-56-390-5-31-16-98-25-150-9-53-34-185-56-295-64-314-62-297-47-307 31-19 376-156 534-211 237-83 325-108 330-94 14 44 59 431 53 465-3 19-15 28-58 42-31 10-116 42-190 72l-135 53 1 35c3 87 17 179 27 179 7 0 84-29 172-65 88-35 167-64 176-64s19 10 22 22c9 32 8 450-1 463-4 6-23 17-42 24-20 8-96 43-170 77l-134 64 7 100c6 97-7 580-19 667-6 42-7 43-150 137-80 53-151 98-159 101-13 4-17-30-26-238m1054-325c2-15 17-86 34-157 16-72 35-164 42-205 7-42 17-91 21-110 5-20 18-117 31-217l22-181-23-54c-12-29-30-71-38-93-65-160-253-490-398-700-35-51-64-100-64-108 0-17 172-62 423-112 191-38 173-44 259 82 40 59 89 133 108 165 19 31 39 57 45 57 5 0 55-86 110-192 101-192 101-192 140-200 22-4 196-11 387-14 303-5 348-4 348 9s-40 68-189 258c-194 248-572 802-571 839 0 79-207 817-239 852-4 4-74 21-156 38-83 17-179 40-213 51-80 25-83 25-79-8m-5220-612c-345-19-731-55-747-71-17-16-37-231-43-474-5-201-3-284 11-420 43-426 152-812 332-1178 75-151 217-383 243-397 11-6 84-10 162-10 138 0 266-9 449-32 415-50 547-22 692 149 62 73 138 267 157 402 43 298 41 516-5 696-38 146-80 239-151 337-31 41-33 49-22 70 28 52 331 450 511 670 43 52 78 100 78 106s-20 16-43 22-48 12-55 15c-69 23-528 87-719 100-92 6-103 5-120-13-55-57-215-247-327-387-71-88-140-174-155-190l-26-30-4 29c-4 36 33 311 64 470 15 78 20 124 14 133-11 15-69 16-296 3m200-1346c-8-21 32-363 54-469l18-80 77-3c100-4 154 11 194 53 53 57 67 178 34 296-33 113-160 199-315 214-45 4-57 1-62-11m1546 1163c-16-38-126-500-168-712-67-337-104-596-125-885-15-200-13-705 3-795 5-33 15-102 22-152l12-92 121-42c134-47 376-138 596-224 208-83 184-90 199 61 6 71 16 156 21 189 24 159 42 315 37 327-3 7-105 51-226 97l-221 84v46c1 67 24 219 35 230 6 6 94-22 234-75 123-47 227-81 231-77 3 4 11 32 18 63 63 299 81 381 107 488 16 63 17 74 4 82-15 9-219 90-382 150-84 32-87 34-87 64 0 45 54 269 66 273 11 3 261-89 400-148 51-22 101-39 111-39 16 0 23 16 41 87 12 48 31 121 42 163 12 41 28 99 36 130 8 30 24 88 35 130 32 117 38 143 38 163 1 22-74 57-369 173-214 85-585 209-713 238-37 9-76 18-87 21-14 3-24-2-31-18m1255-444c-7-23-3-1280 6-1678 11-517 44-1069 64-1084 23-17 353-101 399-102 19 0 35 19 79 88 62 96 128 195 168 248 13 18 35 48 48 67 35 50 163 226 359 497 235 323 339 470 479 681 64 96 129 193 145 216s29 45 29 49c0 5 6 15 14 24 27 30 145 245 138 252-4 4-79 27-167 52s-231 70-316 100c-86 30-161 52-167 48-5-4-34-47-63-96-29-50-54-92-55-94-7-9-543 208-572 231-9 7-12 46-12 133 0 86-4 125-13 132-16 13-512 241-537 248-13 3-22-1-26-12m591-1140c-8-10-7-296 1-376 5-56 9-66 20-56 23 19 224 325 224 342 0 10-34 26-110 51-61 19-115 38-120 41-6 2-13 2-15-2m1406 374c-5-7-14-48-21-92-85-531-287-1213-590-1995-41-104-46-127-35-136 24-19 545-31 748-18l98 7 40 86c188 400 346 823 435 1161 26 100 64 255 64 265h413c324 0 417 2 429 12 28 23 62 314 56 478l-3 90-80-3c-127-4-613 17-779 33-234 23-672 93-751 120-9 2-19-1-24-8"
    mask="url(#a)"
  />
  <defs>
    <mask id="a">
      <rect width="100%" height="100%" fill="#fff" />
      <path
        fill-rule="evenodd"
        d="M0 3000V0h8000v6000H0V3000m2625 2874c-29-3-58-11-64-17-31-39-429-1224-535-1592-99-348-112-406-97-415 7-4 53-11 104-14 103-7 232-24 482-61 269-41 411-35 553 23 96 39 156 80 222 148 90 96 118 140 190 309 40 93 78 259 88 389 14 181-33 376-116 476-74 91-221 178-352 210-31 7-61 18-67 24-9 8 6 67 63 244 43 134 72 237 67 242-20 20-427 45-538 34m164-1227c-23-73-53-169-67-214-14-44-23-88-19-97 7-20 97-23 143-6 123 46 202 278 131 386-20 29-91 64-132 64-11 0-28-40-56-133M1637 5826c-187-27-409-84-661-168-206-68-209-69-224-100-14-31-93-226-103-258-5-14-24-68-44-119-39-104-42-121-21-121 8 0 85 22 172 50 178 56 419 110 495 110 67 0 89-13 89-52 0-48-53-90-291-232-315-187-439-275-555-391-99-98-107-110-175-256-4-9-11-46-15-82-8-77 12-151 55-205 54-69 173-129 331-168 90-22 379-30 532-15 228 22 307 33 316 44 6 6 28 84 50 172 23 88 54 205 69 261s24 105 21 108-50 1-105-5c-141-16-253-1-253 35 0 30 51 71 235 186 240 149 328 214 425 316 143 150 217 281 255 448 33 150 0 285-88 360-98 84-287 115-510 82m2352-184c0-4-31-129-69-277-99-386-200-749-457-1629-30-104-51-193-47-197 11-9 475-192 478-188 4 4 38 120 66 224 12 44 25 93 30 110 4 16 17 63 28 105 11 41 28 102 37 135 41 150 156 604 167 655 3 13 17 76 32 140 16 63 31 130 36 150 15 70 62 296 72 345 5 27 13 70 18 95 20 95 22 155 8 167-21 17-366 173-383 173-9 0-16-4-16-8m536-265c-7-20-24-118-31-177-3-31-14-91-24-135s-24-114-30-155c-7-42-21-111-31-155s-26-116-35-160c-8-44-29-134-45-200s-35-150-43-185c-15-71-105-417-161-625-86-318-85-309-48-322 10-4 169-78 353-164 374-175 406-188 418-174 8 9 44 158 62 250 4 22 17 86 29 144 11 57 17 107 13 111s-81 45-170 91-164 88-166 94c-5 12 36 200 45 210 4 3 79-31 167-77s163-81 166-77c6 6 20 76 35 184 22 145 41 290 41 306 0 12-46 45-150 106-83 48-152 92-154 98-2 5 0 32 4 60 15 98 49 341 59 420 6 44 15 115 20 157 6 43 11 102 11 132v53l-123 80c-122 79-193 123-202 123-3 0-7-6-10-13m694-700c-10-232-19-367-39-542-5-44-12-110-15-145-7-77-29-233-56-390-5-31-16-98-25-150-9-53-34-185-56-295-64-314-62-297-47-307 31-19 376-156 534-211 237-83 325-108 330-94 14 44 59 431 53 465-3 19-15 28-58 42-31 10-116 42-190 72l-135 53 1 35c3 87 17 179 27 179 7 0 84-29 172-65 88-35 167-64 176-64s19 10 22 22c9 32 8 450-1 463-4 6-23 17-42 24-20 8-96 43-170 77l-134 64 7 100c6 97-7 580-19 667-6 42-7 43-150 137-80 53-151 98-159 101-13 4-17-30-26-238m1054-325c2-15 17-86 34-157 16-72 35-164 42-205 7-42 17-91 21-110 5-20 18-117 31-217l22-181-23-54c-12-29-30-71-38-93-65-160-253-490-398-700-35-51-64-100-64-108 0-17 172-62 423-112 191-38 173-44 259 82 40 59 89 133 108 165 19 31 39 57 45 57 5 0 55-86 110-192 101-192 101-192 140-200 22-4 196-11 387-14 303-5 348-4 348 9s-40 68-189 258c-194 248-572 802-571 839 0 79-207 817-239 852-4 4-74 21-156 38-83 17-179 40-213 51-80 25-83 25-79-8m-5220-612c-345-19-731-55-747-71-17-16-37-231-43-474-5-201-3-284 11-420 43-426 152-812 332-1178 75-151 217-383 243-397 11-6 84-10 162-10 138 0 266-9 449-32 415-50 547-22 692 149 62 73 138 267 157 402 43 298 41 516-5 696-38 146-80 239-151 337-31 41-33 49-22 70 28 52 331 450 511 670 43 52 78 100 78 106s-20 16-43 22-48 12-55 15c-69 23-528 87-719 100-92 6-103 5-120-13-55-57-215-247-327-387-71-88-140-174-155-190l-26-30-4 29c-4 36 33 311 64 470 15 78 20 124 14 133-11 15-69 16-296 3m200-1346c-8-21 32-363 54-469l18-80 77-3c100-4 154 11 194 53 53 57 67 178 34 296-33 113-160 199-315 214-45 4-57 1-62-11m1546 1163c-16-38-126-500-168-712-67-337-104-596-125-885-15-200-13-705 3-795 5-33 15-102 22-152l12-92 121-42c134-47 376-138 596-224 208-83 184-90 199 61 6 71 16 156 21 189 24 159 42 315 37 327-3 7-105 51-226 97l-221 84v46c1 67 24 219 35 230 6 6 94-22 234-75 123-47 227-81 231-77 3 4 11 32 18 63 63 299 81 381 107 488 16 63 17 74 4 82-15 9-219 90-382 150-84 32-87 34-87 64 0 45 54 269 66 273 11 3 261-89 400-148 51-22 101-39 111-39 16 0 23 16 41 87 12 48 31 121 42 163 12 41 28 99 36 130 8 30 24 88 35 130 32 117 38 143 38 163 1 22-74 57-369 173-214 85-585 209-713 238-37 9-76 18-87 21-14 3-24-2-31-18m1255-444c-7-23-3-1280 6-1678 11-517 44-1069 64-1084 23-17 353-101 399-102 19 0 35 19 79 88 62 96 128 195 168 248 13 18 35 48 48 67 35 50 163 226 359 497 235 323 339 470 479 681 64 96 129 193 145 216s29 45 29 49c0 5 6 15 14 24 27 30 145 245 138 252-4 4-79 27-167 52s-231 70-316 100c-86 30-161 52-167 48-5-4-34-47-63-96-29-50-54-92-55-94-7-9-543 208-572 231-9 7-12 46-12 133 0 86-4 125-13 132-16 13-512 241-537 248-13 3-22-1-26-12m591-1140c-8-10-7-296 1-376 5-56 9-66 20-56 23 19 224 325 224 342 0 10-34 26-110 51-61 19-115 38-120 41-6 2-13 2-15-2m1406 374c-5-7-14-48-21-92-85-531-287-1213-590-1995-41-104-46-127-35-136 24-19 545-31 748-18l98 7 40 86c188 400 346 823 435 1161 26 100 64 255 64 265h413c324 0 417 2 429 12 28 23 62 314 56 478l-3 90-80-3c-127-4-613 17-779 33-234 23-672 93-751 120-9 2-19-1-24-8"
      />
    </mask>
  </defs>
</svg>
