<?xml version="1.0" standalone="no"?>
<!DOCTYPE svg PUBLIC "-//W3C//DTD SVG 20010904//EN"
 "http://www.w3.org/TR/2001/REC-SVG-20010904/DTD/svg10.dtd">
<svg version="1.0" xmlns="http://www.w3.org/2000/svg"
 width="700.000000pt" height="700.000000pt" viewBox="0 0 700.000000 700.000000"
 preserveAspectRatio="xMidYMid meet">
<metadata>
Created by potrace 1.14, written by Peter Selinger 2001-2017
</metadata>
<g transform="translate(0.000000,700.000000) scale(0.100000,-0.100000)"
fill="#000000" stroke="none">
<path d="M3308 5965 c-2 -2 -61 -6 -133 -9 -71 -4 -148 -9 -170 -11 -22 -3
-65 -7 -95 -11 -118 -12 -192 -23 -335 -49 -44 -8 -91 -16 -105 -19 -14 -2
-43 -9 -65 -14 -22 -6 -51 -13 -65 -16 -150 -30 -440 -129 -612 -209 -83 -39
-271 -143 -303 -168 -5 -5 -45 -36 -89 -70 -262 -204 -422 -466 -453 -744 -5
-38 -8 -866 -8 -1840 l0 -1770 2622 -1 c1875 0 2623 2 2626 10 6 20 0 3570 -6
3613 -28 184 -102 351 -226 505 -62 78 -160 175 -226 223 -22 17 -46 35 -53
42 -55 53 -333 200 -503 266 -174 69 -487 159 -629 181 -19 3 -60 10 -90 16
-30 6 -73 13 -95 16 -22 3 -51 7 -65 10 -24 4 -158 19 -250 29 -122 12 -234
17 -442 20 -125 1 -229 1 -230 0z m481 -299 c71 -4 137 -8 147 -10 11 -2 53
-7 94 -11 41 -3 86 -8 100 -10 79 -10 211 -31 250 -40 14 -3 41 -8 60 -11 19
-3 43 -7 52 -10 9 -3 25 -7 35 -9 210 -43 494 -140 675 -231 211 -106 400
-258 498 -399 73 -106 130 -264 130 -360 l0 -41 -2332 0 c-1283 1 -2333 3
-2332 6 0 3 4 32 7 65 10 92 16 113 48 191 132 317 518 575 1094 732 101 28
125 34 193 47 13 2 31 6 40 9 9 3 33 7 52 10 19 3 46 8 60 10 84 16 152 26
200 31 30 3 73 8 95 11 89 11 126 14 270 20 83 4 151 7 152 8 4 3 300 -3 412
-8z m2011 -1425 l35 -1 -2 -1447 c-1 -797 -2 -1453 -2 -1458 -1 -11 -4653 -15
-4661 -4 -3 4 -5 659 -4 1455 l1 1449 22 5 c16 4 4359 4 4611 1z"/>
<path d="M3286 3604 c-105 -23 -243 -102 -321 -183 l-29 -31 59 -60 c33 -33
63 -60 68 -60 5 0 32 20 60 45 113 98 223 134 355 113 219 -34 295 -254 165
-478 -64 -110 -237 -299 -444 -485 -130 -117 -207 -186 -230 -203 -20 -17 -23
-29 -24 -86 0 -37 4 -67 10 -69 5 -2 244 -3 530 -2 l520 0 3 98 3 97 -133 0
c-229 1 -410 -1 -503 -6 l-90 -4 55 51 c463 429 602 633 587 864 -12 189 -116
324 -298 385 -82 29 -244 35 -343 14z"/>
<path d="M4675 3599 c-83 -21 -213 -85 -272 -132 l-42 -34 60 -71 60 -72 48
35 c61 44 164 92 216 101 248 43 427 -102 356 -289 -40 -105 -194 -169 -423
-176 l-28 -1 0 -85 0 -85 43 -1 c23 0 51 -2 62 -3 11 -2 51 -6 88 -10 214 -23
344 -139 322 -288 -13 -83 -56 -138 -141 -182 -89 -44 -251 -50 -362 -12 -68
23 -232 121 -232 139 0 12 -18 -8 -75 -82 l-49 -64 43 -37 c260 -224 713 -231
938 -15 164 158 148 417 -34 546 -51 37 -160 89 -185 89 -38 0 -22 17 43 47
92 42 167 106 204 174 27 48 30 63 30 144 0 76 -4 98 -26 145 -53 112 -151
180 -329 228 -8 2 -67 5 -130 7 -86 2 -132 -2 -185 -16z"/>
<path d="M2060 3580 c-44 -28 -185 -71 -325 -98 l-40 -8 -3 -72 -3 -72 166 0
c164 0 165 0 166 -22 4 -101 0 -999 -4 -1005 -3 -5 -98 -9 -211 -9 l-204 1 0
-80 c0 -44 2 -87 4 -95 3 -13 67 -15 511 -15 l508 0 3 93 c2 69 0 92 -10 93
-7 1 -92 2 -188 3 l-175 1 -2 640 c0 352 -2 643 -2 648 -1 11 -174 8 -191 -3z"/>
</g>
</svg>
